<svg width="64" height="64" viewBox="0 0 64 64" fill="none" xmlns="http://www.w3.org/2000/svg">
<path d="M23.0651 48.7496C23.0651 48.9794 22.8008 49.1633 22.4675 49.1633C22.0883 49.1978 21.824 49.0139 21.824 48.7496C21.824 48.5198 22.0883 48.3359 22.4216 48.3359C22.7663 48.3014 23.0651 48.4853 23.0651 48.7496ZM19.4911 48.2325C19.4107 48.4623 19.6405 48.7266 19.9853 48.7956C20.2841 48.9105 20.6288 48.7956 20.6978 48.5657C20.7667 48.3359 20.5484 48.0716 20.2036 47.9681C19.9048 47.8877 19.5716 48.0026 19.4911 48.2325ZM24.5706 48.0371C24.2373 48.1175 24.0075 48.3359 24.0419 48.6002C24.0764 48.83 24.3752 48.9794 24.72 48.899C25.0532 48.8185 25.2831 48.6002 25.2486 48.3704C25.2141 48.152 24.9038 48.0026 24.5706 48.0371ZM32.1323 4C16.1929 4 4 16.101 4 32.0403C4 44.7849 12.0214 55.6907 23.4788 59.529C24.9498 59.7933 25.4669 58.8855 25.4669 58.1385C25.4669 57.426 25.4325 53.4958 25.4325 51.0825C25.4325 51.0825 17.3881 52.8063 15.6988 47.6579C15.6988 47.6579 14.3887 44.3137 12.504 43.4518C12.504 43.4518 9.87238 41.6476 12.6879 41.6821C12.6879 41.6821 15.5494 41.9119 17.1238 44.647C19.6405 49.0829 23.8581 47.8073 25.5014 47.0488C25.7657 45.2101 26.5127 43.9345 27.3401 43.176C20.9161 42.4635 14.4347 41.5327 14.4347 30.4774C14.4347 27.3171 15.3081 25.7313 17.1468 23.7087C16.848 22.9617 15.8712 19.8819 17.4456 15.9056C19.8474 15.1587 25.375 19.0085 25.375 19.0085C27.6734 18.3649 30.1442 18.0317 32.5919 18.0317C35.0397 18.0317 37.5105 18.3649 39.8089 19.0085C39.8089 19.0085 45.3365 15.1472 47.7383 15.9056C49.3127 19.8933 48.3359 22.9617 48.0371 23.7087C49.8758 25.7427 51.002 27.3286 51.002 30.4774C51.002 41.5671 44.2333 42.452 37.8093 43.176C38.8665 44.0839 39.7629 45.8077 39.7629 48.5083C39.7629 52.381 39.7284 57.1732 39.7284 58.1155C39.7284 58.8625 40.2571 59.7704 41.7165 59.506C53.2085 55.6907 61 44.7849 61 32.0403C61 16.101 48.0716 4 32.1323 4ZM15.1702 43.6357C15.0208 43.7506 15.0552 44.0149 15.2506 44.2333C15.4345 44.4171 15.6988 44.4976 15.8482 44.3482C15.9976 44.2333 15.9631 43.969 15.7677 43.7506C15.5839 43.5667 15.3196 43.4863 15.1702 43.6357ZM13.929 42.7048C13.8486 42.8542 13.9635 43.0381 14.1933 43.153C14.3772 43.2679 14.6071 43.2335 14.6875 43.0726C14.7679 42.9232 14.653 42.7393 14.4232 42.6244C14.1933 42.5554 14.0095 42.5899 13.929 42.7048ZM17.6524 46.796C17.4685 46.9454 17.5375 47.2901 17.8018 47.5085C18.0661 47.7728 18.3994 47.8073 18.5488 47.6234C18.6982 47.474 18.6292 47.1292 18.3994 46.9109C18.1466 46.6466 17.8018 46.6121 17.6524 46.796ZM16.3423 45.1067C16.1585 45.2216 16.1585 45.5204 16.3423 45.7847C16.5262 46.049 16.8365 46.1639 16.9859 46.049C17.1698 45.8996 17.1698 45.6008 16.9859 45.3365C16.825 45.0722 16.5262 44.9573 16.3423 45.1067Z" fill="#64698F"/>
</svg>
