<svg width="64" height="64" viewBox="0 0 64 64" fill="none" xmlns="http://www.w3.org/2000/svg">
<path d="M54.5815 5.3333H9.41812C7.28188 5.30759 5.52863 7.01754 5.50098 9.15378V54.8475C5.52879 56.9835 7.28204 58.693 9.41812 58.6666H54.5815C56.7179 58.6932 58.4715 56.9832 58.4987 54.8468V9.15378C58.4714 7.01738 56.7179 5.30725 54.5815 5.3333ZM21.5679 49.9786H13.5625V25.896H21.5679V49.9786ZM18.2218 22.6121C18.0032 22.6279 17.7839 22.6266 17.5656 22.608H17.513C15.2129 22.7467 13.2358 20.9946 13.0972 18.6945C12.9585 16.3943 14.7106 14.4173 17.0107 14.2786C17.2132 14.2664 17.4165 14.269 17.6187 14.2863C19.9178 14.1198 21.9165 15.8486 22.0832 18.1478C22.2497 20.4467 20.5208 22.4456 18.2218 22.6121ZM50.431 49.9785H42.4269V37.0963C42.4269 33.8584 41.2679 31.6502 38.372 31.6502C36.5219 31.6609 34.8781 32.8328 34.2646 34.5782C34.0597 35.208 33.9704 35.8694 34.0009 36.531V49.9785H25.9969C25.9969 49.9713 26.1019 28.1552 25.9977 25.8963H34.0018V29.3095C35.4769 26.7423 38.2577 25.2088 41.216 25.3312C46.4824 25.3312 50.431 28.7733 50.431 36.1702V49.9785H50.431Z" fill="#64698F"/>
</svg>
