<svg width="64" height="64" viewBox="0 0 64 64" fill="none" xmlns="http://www.w3.org/2000/svg">
<path d="M32.0002 60.8007C16.094 60.8007 3.2002 47.9069 3.2002 32.0007C3.2002 16.0944 16.094 3.20068 32.0002 3.20068C47.9064 3.20068 60.8002 16.0944 60.8002 32.0007C60.8002 47.9069 47.9064 60.8007 32.0002 60.8007ZM50.3026 43.3824V43.08C50.3026 40.4247 50.3026 39.2122 48.4248 38.138C47.8213 37.7958 47.2014 37.4834 46.5672 37.202C45.5103 36.721 44.8104 36.4071 43.8658 35.0247C43.753 34.8605 43.6416 34.6954 43.5317 34.5293C42.5381 33.0173 41.821 31.9287 39.0908 32.3607C33.7196 33.2132 33.3221 34.1578 33.086 35.7533L33.0485 36.0154C32.7 38.3482 32.6367 39.1316 33.6101 40.154C37.2533 43.9757 39.4364 46.7319 40.0988 48.3447C40.4213 49.1309 41.2508 51.5127 40.6805 53.8685C44.1763 52.4761 47.288 50.267 49.7554 47.426C50.0722 46.3488 50.3026 45.0068 50.3026 43.3824V43.3824ZM32.0002 8.47972C25.3272 8.47972 19.2994 11.2618 15.0197 15.7258C15.5295 16.08 15.973 16.5783 16.2783 17.2637C16.8658 18.5799 16.8658 19.9364 16.8658 21.1373C16.8658 22.082 16.8658 22.9805 17.1682 23.6285C17.5829 24.5156 19.3743 24.8957 20.9554 25.224C21.5228 25.345 22.1045 25.466 22.6344 25.6128C24.0917 26.016 25.2207 27.3264 26.1221 28.3776C26.4965 28.8125 27.0524 29.4548 27.3317 29.616C27.4757 29.5124 27.9394 29.0084 28.1669 28.1818C28.3455 27.5482 28.2936 26.9895 28.0373 26.6842C26.4245 24.7834 26.5138 21.1258 27.012 19.7751C27.7954 17.6468 30.2434 17.8052 32.0348 17.9204C32.7029 17.9636 33.3308 18.0068 33.8031 17.9463C35.5944 17.7216 36.1474 14.9943 36.5362 14.4615C37.3772 13.3095 39.9519 11.5728 41.5474 10.5015C38.5421 9.16514 35.2892 8.47629 32.0002 8.47972V8.47972Z" fill="#64698F"/>
</svg>
