<svg width="64" height="64" viewBox="0 0 64 64" fill="none" xmlns="http://www.w3.org/2000/svg">
<path d="M31.984 5.3335C17.2563 5.3335 5.31738 17.2726 5.31738 32.0002C5.31738 46.7277 17.2563 58.6668 31.984 58.6668C46.7116 58.6668 58.6507 46.7277 58.6507 32.0002C58.6507 17.2726 46.7116 5.3335 31.984 5.3335ZM40.4635 45.7401C40.0768 46.7044 38.9816 47.1727 38.0172 46.7858C37.9396 46.7547 37.8643 46.7186 37.7915 46.6774L30.5524 41.0524L25.9062 45.3389C25.6872 45.5006 25.4007 45.5399 25.1463 45.4427L26.0369 37.4735L26.0654 37.4961L26.0836 37.3387C26.0836 37.3387 39.1103 25.4787 39.6409 24.9735C40.1782 24.4694 40.001 24.36 40.001 24.36C40.0315 23.7453 39.0369 24.36 39.0369 24.36L21.7768 35.4642L14.5888 33.0161C14.5888 33.0161 13.4848 32.6201 13.3808 31.7495C13.2715 30.8854 14.6248 30.4162 14.6248 30.4162L43.2034 19.0628C43.2034 19.0628 45.5529 18.0161 45.5529 19.7495L40.4635 45.7401Z" fill="#64698F"/>
</svg>
